<svg xmlns="http://www.w3.org/2000/svg" width="164" height="196" viewBox="0 0 164 196">
  <defs>
    <style>
      .cls-1 {
        fill: #020224;
      }

      .cls-2 {
        fill: #d0d0ce;
      }
    </style>
  </defs>
  <g id="그룹_4516" data-name="그룹 4516" transform="translate(-2843.513 -7365.78)">
    <rect id="사각형_893" data-name="사각형 893" class="cls-1" width="164" height="196" transform="translate(2843.513 7365.78)"/>
    <rect id="사각형_894" data-name="사각형 894" class="cls-2" width="143.719" height="2.146" transform="translate(2853.404 7480.708)"/>
    <g id="그룹_4451" data-name="그룹 4451" transform="translate(2863.815 7385.905)">
      <path id="패스_2744" data-name="패스 2744" class="cls-2" d="M2886.1,7432.957v-21.732c0-4.746.127-7.569.253-8.724h-6.614a34.756,34.756,0,0,1,.838,8.724v14.563a52.612,52.612,0,0,1-.525,8.7h11.733c3.938,0,8.6.094,10.123.2l.781-3.267A91.67,91.67,0,0,1,2886.1,7432.957Z" transform="translate(-2879.736 -7402.125)"/>
      <path id="패스_2745" data-name="패스 2745" class="cls-2" d="M3016.2,7408.611v17.344l-24.3-24.126v24.607c0,5.609-.908,7.759-.908,7.759h2.932a51.394,51.394,0,0,1-.354-7.759v-15.872l24.3,24.087v-26.04c0-4.745,1.047-6.405,1.047-6.405h-3.111A33.977,33.977,0,0,1,3016.2,7408.611Z" transform="translate(-2928.877 -7401.829)"/>
      <path id="패스_2746" data-name="패스 2746" class="cls-2" d="M3054.127,7429.686l2.216-4.729h15.447l2.269,4.881a7.981,7.981,0,0,1,1,4.357h7.346a19.61,19.61,0,0,1-3.28-5.207l-12.644-27.159a20.168,20.168,0,0,1-3.271,4.021l-11.485,24.234c-.362.756-1.581,2.826-2.372,4.151l3.519-.04A12,12,0,0,1,3054.127,7429.686Zm9.993-21.22,7.056,15.173h-14.184Z" transform="translate(-2954.656 -7401.829)"/>
      <path id="패스_2747" data-name="패스 2747" class="cls-2" d="M2953.758,7411.225v11.24c0,6.6-4.117,10.764-9.6,10.764-4.7,0-9.484-3.349-9.484-10.934v-11.07a57.6,57.6,0,0,1,.545-8.724h-6.9a31.6,31.6,0,0,1,.956,8.724v9.972c0,8.16,4,13.987,14.285,13.987,11.281,0,11.9-9.559,11.9-12.442v-11.517a43.721,43.721,0,0,1,.65-8.724h-2.858A54.855,54.855,0,0,1,2953.758,7411.225Z" transform="translate(-2901.192 -7402.125)"/>
    </g>
    <path id="패스_2748" data-name="패스 2748" class="cls-2" d="M3082.871,7475.017l-21.192,17.366-17-13.174,13.175,17-16.7,20.521,20.523-16.693L3080,7514.526l-14.489-18.316Z" transform="translate(-87.219 -48.248)"/>
    <path id="패스_2749" data-name="패스 2749" class="cls-2" d="M2929.9,7608.537c6.064,0,8.389,4.056,8.389,7.924s-2.324,7.924-8.389,7.924-8.389-4.059-8.389-7.924S2923.831,7608.537,2929.9,7608.537Zm0,1.943c-3.444,0-6.148,1.987-6.148,5.98s2.7,5.98,6.148,5.98,6.15-1.988,6.15-5.98S2933.34,7610.48,2929.9,7610.48Z" transform="translate(-34.371 -107.224)"/>
    <path id="패스_2750" data-name="패스 2750" class="cls-2" d="M2957.951,7609.216h2.241v9.659c0,2.722,1.817,3.863,4.584,3.863s4.585-1.142,4.585-3.863v-9.659h2.24v9.382c0,4.037-2.24,6.083-6.825,6.083s-6.825-2.046-6.825-6.083Z" transform="translate(-50.468 -107.523)"/>
    <path id="패스_2751" data-name="패스 2751" class="cls-2" d="M2992.114,7612.3h-.043v12h-2.24v-15.088h2.6l9.7,12h.042v-12h2.24V7624.3h-2.6Z" transform="translate(-64.549 -107.523)"/>
    <path id="패스_2752" data-name="패스 2752" class="cls-2" d="M3027.574,7611.159h-5.706v-1.943h13.651v1.943h-5.7V7624.3h-2.241Z" transform="translate(-78.699 -107.523)"/>
    <path id="패스_2753" data-name="패스 2753" class="cls-2" d="M3051.781,7609.216h9.207a3.908,3.908,0,0,1,4.254,4.014,3.607,3.607,0,0,1-2.535,3.719v.042c1.331.191,2.113,1.438,2.2,3.212.127,2.81.212,3.51.719,4.1h-2.366c-.359-.422-.359-1.056-.465-2.875-.147-2.7-1.056-3.528-2.917-3.528h-5.852v6.4h-2.24Zm8.494,6.74c2.2,0,2.726-1.332,2.726-2.387,0-1.438-.866-2.41-2.66-2.41h-6.32v4.8Z" transform="translate(-91.912 -107.523)"/>
    <path id="패스_2754" data-name="패스 2754" class="cls-2" d="M3092.3,7609.216h2.726l-6.657,8.767v6.321h-2.239v-6.213l-6.614-8.875h2.852l4.923,6.868Z" transform="translate(-104.162 -107.523)"/>
    <path id="패스_2755" data-name="패스 2755" class="cls-2" d="M3024.312,7653.385h2.239v13.141h9.17v1.943h-11.409Z" transform="translate(-79.78 -127.033)"/>
    <path id="패스_2756" data-name="패스 2756" class="cls-2" d="M3049.867,7653.385h2.241v9.655c0,2.724,1.817,3.867,4.585,3.867s4.585-1.144,4.585-3.867v-9.655h2.242v9.38c0,4.034-2.242,6.086-6.827,6.086s-6.826-2.052-6.826-6.086Z" transform="translate(-91.067 -127.033)"/>
    <path id="패스_2757" data-name="패스 2757" class="cls-2" d="M3081.594,7653.385h8.387c3.215,0,4.649,1.415,4.649,3.78a3.1,3.1,0,0,1-2.2,3.189v.042a3.436,3.436,0,0,1,2.852,3.719c0,2.157-1.5,4.354-4.775,4.354h-8.916Zm8.347,6.229c1.648,0,2.451-.906,2.451-2.111,0-1.372-.739-2.174-2.578-2.174h-5.981v4.285Zm-.042,6.912c2.493,0,3.148-1.267,3.148-2.555,0-1.187-.677-2.411-2.958-2.411h-6.256v4.966Z" transform="translate(-105.08 -127.033)"/>
    <path id="패스_2758" data-name="패스 2758" class="cls-2" d="M2901.3,7619.228a4.889,4.889,0,0,1-4.992,3.214c-4.163,0-5.705-2.937-5.705-5.791,0-4.118,2.262-6.17,5.832-6.17,2.824,0,4.437,1.408,5,3.2l2.246-.288c-.852-3.747-4.615-4.854-7.41-4.854-5.157,0-7.9,3.489-7.9,7.884,0,5.872,4.121,7.964,7.925,7.964a7.275,7.275,0,0,0,7.271-4.867Z" transform="translate(-19.733 -107.224)"/>
    <path id="패스_2759" data-name="패스 2759" class="cls-2" d="M3003.368,7663.4a4.889,4.889,0,0,1-4.992,3.213c-4.163,0-5.7-2.937-5.7-5.791,0-4.119,2.26-6.167,5.832-6.167,2.823,0,4.437,1.409,4.994,3.2l2.247-.29c-.85-3.745-4.615-4.854-7.411-4.854-5.155,0-7.9,3.488-7.9,7.882,0,5.874,4.12,7.971,7.924,7.971a7.277,7.277,0,0,0,7.272-4.874Z" transform="translate(-64.815 -126.733)"/>
  </g>
</svg>
