<svg xmlns="http://www.w3.org/2000/svg" width="124.044" height="27.158" viewBox="0 0 124.044 27.158">
  <defs>
    <style>
      .cls-1 {
        fill: #fff;
      }
    </style>
  </defs>
  <g id="그룹_4998" data-name="그룹 4998" transform="translate(-45.001 -22.21)">
    <path id="패스_2427" data-name="패스 2427" class="cls-1" d="M207.894,151.121V136.969c0-3.088.088-4.927.175-5.678h-4.582a21.332,21.332,0,0,1,.58,5.678v9.483a32.229,32.229,0,0,1-.363,5.664h8.127c2.728,0,5.958.063,7.013.132l.541-2.126A67.719,67.719,0,0,1,207.894,151.121Z" transform="translate(-158.486 -105.805)"/>
    <path id="패스_2428" data-name="패스 2428" class="cls-1" d="M448.855,134.324v11.291l-16.833-15.706v16.019a13.843,13.843,0,0,1-.629,5.052h2.032a31.372,31.372,0,0,1-.246-5.052V135.594l16.833,15.684V134.324c0-3.089.725-4.169.725-4.169h-2.155A20.825,20.825,0,0,1,448.855,134.324Z" transform="translate(-343.361 -104.668)"/>
    <path id="패스_2429" data-name="패스 2429" class="cls-1" d="M554.25,148.044l1.534-3.079h10.7l1.572,3.176a4.925,4.925,0,0,1,.693,2.838h5.09a12.719,12.719,0,0,1-2.273-3.39l-8.758-17.68a13.212,13.212,0,0,1-2.266,2.615L552.587,148.3c-.251.494-1.1,1.84-1.644,2.7l2.439-.026A7.432,7.432,0,0,1,554.25,148.044Zm6.922-13.816,4.888,9.877h-9.826Z" transform="translate(-440.34 -104.668)"/>
    <path id="패스_2430" data-name="패스 2430" class="cls-1" d="M320.631,136.969v7.319c0,4.3-2.852,7.008-6.649,7.008-3.258,0-6.57-2.179-6.57-7.119v-7.208a35.223,35.223,0,0,1,.378-5.678h-4.782a19.411,19.411,0,0,1,.662,5.678v6.493c0,5.313,2.767,9.1,9.9,9.1,7.815,0,8.247-6.222,8.247-8.1v-7.5a26.871,26.871,0,0,1,.45-5.678h-1.98A33.528,33.528,0,0,1,320.631,136.969Z" transform="translate(-239.217 -105.805)"/>
    <path id="패스_2431" data-name="패스 2431" class="cls-1" d="M736.306,112.828l-14.68,11.3-11.779-8.577,9.127,11.069-11.566,13.362,14.218-10.869,12.689,9.433-10.037-11.925Z" transform="translate(-567.262 -90.618)"/>
  </g>
</svg>
