<svg xmlns="http://www.w3.org/2000/svg" width="75.763" height="16.588" viewBox="0 0 75.763 16.588">
  <g id="그룹_6253" data-name="그룹 6253" opacity="0.5">
    <path id="패스_2427" data-name="패스 2427" d="M206.178,143.4v-8.643c0-1.886.054-3.009.107-3.468h-2.8a13.029,13.029,0,0,1,.354,3.468v5.792a19.685,19.685,0,0,1-.222,3.459h4.964c1.666,0,3.639.038,4.284.081l.331-1.3A41.363,41.363,0,0,1,206.178,143.4Z" transform="translate(-203.487 -129.29)" fill="#fff"/>
    <path id="패스_2428" data-name="패스 2428" d="M442.058,132.605v6.9l-10.281-9.593v9.784a8.455,8.455,0,0,1-.384,3.085h1.241a19.168,19.168,0,0,1-.15-3.085v-6.312l10.281,9.579V132.605a4.994,4.994,0,0,1,.443-2.547h-1.316A12.718,12.718,0,0,1,442.058,132.605Z" transform="translate(-405.111 -128.058)" fill="#fff"/>
    <path id="패스_2429" data-name="패스 2429" d="M552.963,140.986l.937-1.88h6.536l.96,1.94a3.008,3.008,0,0,1,.424,1.733h3.109a7.768,7.768,0,0,1-1.388-2.071l-5.349-10.8a8.069,8.069,0,0,1-1.384,1.6l-4.859,9.636c-.154.3-.669,1.124-1,1.652l1.49-.016A4.54,4.54,0,0,1,552.963,140.986Zm4.228-8.438,2.986,6.033h-6Z" transform="translate(-510.875 -128.058)" fill="#fff"/>
    <path id="패스_2430" data-name="패스 2430" d="M313.771,134.759v4.47a3.976,3.976,0,0,1-4.061,4.28c-1.99,0-4.013-1.331-4.013-4.348v-4.4a21.513,21.513,0,0,1,.231-3.468h-2.921a11.856,11.856,0,0,1,.4,3.468v3.966c0,3.245,1.69,5.561,6.044,5.561,4.773,0,5.037-3.8,5.037-4.946v-4.581a16.413,16.413,0,0,1,.275-3.468h-1.209A20.476,20.476,0,0,1,313.771,134.759Z" transform="translate(-291.531 -129.29)" fill="#fff"/>
    <path id="패스_2431" data-name="패스 2431" d="M725.059,112.828l-8.966,6.9-7.194-5.239,5.575,6.761-7.064,8.161,8.684-6.639,7.75,5.761-6.131-7.284Z" transform="translate(-649.296 -112.828)" fill="#fff"/>
  </g>
</svg>
